<svg xmlns="http://www.w3.org/2000/svg" viewBox="0 0 16 16" shape-rendering="crispEdges" width="16" height="16"><rect x="5" y="2" width="1" height="1" fill="#1B2430"></rect><rect x="6" y="1" width="1" height="1" fill="#1B2430"></rect><rect x="5" y="1" width="1" height="1" fill="#1B2430"></rect><rect x="7" y="1" width="1" height="1" fill="#1B2430"></rect><rect x="8" y="1" width="1" height="1" fill="#1B2430"></rect><rect x="9" y="1" width="1" height="1" fill="#1B2430"></rect><rect x="10" y="1" width="1" height="1" fill="#1B2430"></rect><rect x="11" y="2" width="1" height="1" fill="#1B2430"></rect><rect x="11" y="1" width="1" height="1" fill="#1B2430"></rect><rect x="4" y="3" width="1" height="1" fill="#1B2430"></rect><rect x="5" y="4" width="1" height="1" fill="#1B2430"></rect><rect x="4" y="2" width="1" height="1" fill="#1B2430"></rect><rect x="4" y="4" width="1" height="1" fill="#1B2430"></rect><rect x="12" y="2" width="1" height="1" fill="#1B2430"></rect><rect x="13" y="2" width="1" height="1" fill="#1B2430"></rect><rect x="14" y="3" width="1" height="1" fill="#1B2430"></rect><rect x="14" y="4" width="1" height="1" fill="#1B2430"></rect><rect x="14" y="2" width="1" height="1" fill="#1B2430"></rect><rect x="6" y="5" width="1" height="1" fill="#1B2430"></rect><rect x="7" y="5" width="1" height="1" fill="#1B2430"></rect><rect x="5" y="5" width="1" height="1" fill="#1B2430"></rect><rect x="8" y="5" width="1" height="1" fill="#1B2430"></rect><rect x="9" y="5" width="1" height="1" fill="#1B2430"></rect><rect x="14" y="5" width="1" height="1" fill="#1B2430"></rect><rect x="8" y="6" width="1" height="1" fill="#1B2430"></rect><rect x="11" y="7" width="1" height="1" fill="#1B2430"></rect><rect x="15" y="6" width="1" height="1" fill="#1B2430"></rect><rect x="15" y="7" width="1" height="1" fill="#1B2430"></rect><rect x="15" y="5" width="1" height="1" fill="#1B2430"></rect><rect x="7" y="7" width="1" height="1" fill="#1B2430"></rect><rect x="7" y="6" width="1" height="1" fill="#1B2430"></rect><rect x="10" y="8" width="1" height="1" fill="#1B2430"></rect><rect x="11" y="8" width="1" height="1" fill="#1B2430"></rect><rect x="15" y="8" width="1" height="1" fill="#1B2430"></rect><rect x="6" y="8" width="1" height="1" fill="#1B2430"></rect><rect x="6" y="7" width="1" height="1" fill="#1B2430"></rect><rect x="9" y="9" width="1" height="1" fill="#1B2430"></rect><rect x="10" y="9" width="1" height="1" fill="#1B2430"></rect><rect x="11" y="9" width="1" height="1" fill="#1B2430"></rect><rect x="15" y="9" width="1" height="1" fill="#1B2430"></rect><rect x="5" y="9" width="1" height="1" fill="#1B2430"></rect><rect x="5" y="8" width="1" height="1" fill="#1B2430"></rect><rect x="8" y="10" width="1" height="1" fill="#1B2430"></rect><rect x="9" y="10" width="1" height="1" fill="#1B2430"></rect><rect x="11" y="10" width="1" height="1" fill="#1B2430"></rect><rect x="15" y="10" width="1" height="1" fill="#1B2430"></rect><rect x="4" y="10" width="1" height="1" fill="#1B2430"></rect><rect x="4" y="9" width="1" height="1" fill="#1B2430"></rect><rect x="7" y="11" width="1" height="1" fill="#1B2430"></rect><rect x="8" y="11" width="1" height="1" fill="#1B2430"></rect><rect x="12" y="11" width="1" height="1" fill="#1B2430"></rect><rect x="11" y="11" width="1" height="1" fill="#1B2430"></rect><rect x="14" y="11" width="1" height="1" fill="#1B2430"></rect><rect x="15" y="11" width="1" height="1" fill="#1B2430"></rect><rect x="3" y="11" width="1" height="1" fill="#1B2430"></rect><rect x="3" y="10" width="1" height="1" fill="#1B2430"></rect><rect x="6" y="12" width="1" height="1" fill="#1B2430"></rect><rect x="7" y="12" width="1" height="1" fill="#1B2430"></rect><rect x="13" y="12" width="1" height="1" fill="#1B2430"></rect><rect x="14" y="12" width="1" height="1" fill="#1B2430"></rect><rect x="12" y="12" width="1" height="1" fill="#1B2430"></rect><rect x="2" y="12" width="1" height="1" fill="#1B2430"></rect><rect x="2" y="11" width="1" height="1" fill="#1B2430"></rect><rect x="5" y="13" width="1" height="1" fill="#1B2430"></rect><rect x="6" y="13" width="1" height="1" fill="#1B2430"></rect><rect x="1" y="13" width="1" height="1" fill="#1B2430"></rect><rect x="1" y="12" width="1" height="1" fill="#1B2430"></rect><rect x="1" y="14" width="1" height="1" fill="#1B2430"></rect><rect x="4" y="14" width="1" height="1" fill="#1B2430"></rect><rect x="5" y="14" width="1" height="1" fill="#1B2430"></rect><rect x="2" y="15" width="1" height="1" fill="#1B2430"></rect><rect x="3" y="15" width="1" height="1" fill="#1B2430"></rect><rect x="1" y="15" width="1" height="1" fill="#1B2430"></rect><rect x="4" y="15" width="1" height="1" fill="#1B2430"></rect><rect x="6" y="2" width="1" height="1" fill="#BDEBF7"></rect><rect x="7" y="2" width="1" height="1" fill="#BDEBF7"></rect><rect x="8" y="2" width="1" height="1" fill="#BDEBF7"></rect><rect x="9" y="2" width="1" height="1" fill="#BDEBF7"></rect><rect x="10" y="2" width="1" height="1" fill="#63C2E6"></rect><rect x="5" y="3" width="1" height="1" fill="#63C2E6"></rect><rect x="6" y="3" width="1" height="1" fill="#46A6D4"></rect><rect x="7" y="3" width="1" height="1" fill="#63C2E6"></rect><rect x="8" y="3" width="1" height="1" fill="#46A6D4"></rect><rect x="9" y="3" width="1" height="1" fill="#63C2E6"></rect><rect x="10" y="3" width="1" height="1" fill="#46A6D4"></rect><rect x="11" y="3" width="1" height="1" fill="#BDEBF7"></rect><rect x="12" y="3" width="1" height="1" fill="#A9763F"></rect><rect x="13" y="3" width="1" height="1" fill="#5E3F20"></rect><rect x="6" y="4" width="1" height="1" fill="#63C2E6"></rect><rect x="7" y="4" width="1" height="1" fill="#2E7FB0"></rect><rect x="8" y="4" width="1" height="1" fill="#2E7FB0"></rect><rect x="9" y="4" width="1" height="1" fill="#2E7FB0"></rect><rect x="10" y="4" width="1" height="1" fill="#63C2E6"></rect><rect x="11" y="4" width="1" height="1" fill="#46A6D4"></rect><rect x="12" y="4" width="1" height="1" fill="#8A5E32"></rect><rect x="13" y="4" width="1" height="1" fill="#5E3F20"></rect><rect x="10" y="5" width="1" height="1" fill="#A9763F"></rect><rect x="11" y="5" width="1" height="1" fill="#63C2E6"></rect><rect x="12" y="5" width="1" height="1" fill="#46A6D4"></rect><rect x="13" y="5" width="1" height="1" fill="#2E7FB0"></rect><rect x="9" y="6" width="1" height="1" fill="#A9763F"></rect><rect x="10" y="6" width="1" height="1" fill="#8A5E32"></rect><rect x="11" y="6" width="1" height="1" fill="#2E7FB0"></rect><rect x="12" y="6" width="1" height="1" fill="#63C2E6"></rect><rect x="13" y="6" width="1" height="1" fill="#46A6D4"></rect><rect x="14" y="6" width="1" height="1" fill="#63C2E6"></rect><rect x="8" y="7" width="1" height="1" fill="#A9763F"></rect><rect x="9" y="7" width="1" height="1" fill="#A9763F"></rect><rect x="10" y="7" width="1" height="1" fill="#5E3F20"></rect><rect x="12" y="7" width="1" height="1" fill="#BDEBF7"></rect><rect x="13" y="7" width="1" height="1" fill="#63C2E6"></rect><rect x="14" y="7" width="1" height="1" fill="#2E7FB0"></rect><rect x="7" y="8" width="1" height="1" fill="#A9763F"></rect><rect x="8" y="8" width="1" height="1" fill="#8A5E32"></rect><rect x="9" y="8" width="1" height="1" fill="#5E3F20"></rect><rect x="12" y="8" width="1" height="1" fill="#BDEBF7"></rect><rect x="13" y="8" width="1" height="1" fill="#46A6D4"></rect><rect x="14" y="8" width="1" height="1" fill="#2E7FB0"></rect><rect x="6" y="9" width="1" height="1" fill="#A9763F"></rect><rect x="7" y="9" width="1" height="1" fill="#A9763F"></rect><rect x="8" y="9" width="1" height="1" fill="#5E3F20"></rect><rect x="12" y="9" width="1" height="1" fill="#BDEBF7"></rect><rect x="13" y="9" width="1" height="1" fill="#63C2E6"></rect><rect x="14" y="9" width="1" height="1" fill="#2E7FB0"></rect><rect x="5" y="10" width="1" height="1" fill="#A9763F"></rect><rect x="6" y="10" width="1" height="1" fill="#8A5E32"></rect><rect x="7" y="10" width="1" height="1" fill="#5E3F20"></rect><rect x="12" y="10" width="1" height="1" fill="#63C2E6"></rect><rect x="13" y="10" width="1" height="1" fill="#46A6D4"></rect><rect x="14" y="10" width="1" height="1" fill="#2E7FB0"></rect><rect x="4" y="11" width="1" height="1" fill="#A9763F"></rect><rect x="5" y="11" width="1" height="1" fill="#A9763F"></rect><rect x="6" y="11" width="1" height="1" fill="#5E3F20"></rect><rect x="13" y="11" width="1" height="1" fill="#63C2E6"></rect><rect x="3" y="12" width="1" height="1" fill="#A9763F"></rect><rect x="4" y="12" width="1" height="1" fill="#8A5E32"></rect><rect x="5" y="12" width="1" height="1" fill="#5E3F20"></rect><rect x="2" y="13" width="1" height="1" fill="#A9763F"></rect><rect x="3" y="13" width="1" height="1" fill="#A9763F"></rect><rect x="4" y="13" width="1" height="1" fill="#5E3F20"></rect><rect x="2" y="14" width="1" height="1" fill="#5E3F20"></rect><rect x="3" y="14" width="1" height="1" fill="#5E3F20"></rect><rect x="7" y="3" width="1" height="1" fill="#EAFBFF"></rect><rect x="13" y="6" width="1" height="1" fill="#EAFBFF"></rect></svg>
